inDegrees=yes
name=ik_lifting_orientations
DataType=double
version=3
OpenSimVersion=4.5-2024-01-10-34fd6af
endheader
time	pelvis_tilt	pelvis_list	pelvis_rotation	pelvis_tx	pelvis_ty	pelvis_tz	hip_flexion_r	hip_adduction_r	hip_rotation_r	knee_angle_r	knee_angle_r_beta	ankle_angle_r	subtalar_angle_r	mtp_angle_r	hip_flexion_l	hip_adduction_l	hip_rotation_l	knee_angle_l	knee_angle_l_beta	ankle_angle_l	subtalar_angle_l	mtp_angle_l	lumbar_extension	lumbar_bending	lumbar_rotation	arm_flex_r	arm_add_r	arm_rot_r	elbow_flex_r	pro_sup_r	wrist_flex_r	wrist_dev_r	arm_flex_l	arm_add_l	arm_rot_l	elbow_flex_l	pro_sup_l	wrist_flex_l	wrist_dev_l
0.02	5.886088351902388e-05	0.001769480750646594	14.96102266072805	0	0.9399999998679526	0	44.40059129081555	-10.02886780190851	0	60.32619709311302	1.052890764481854	-4.976584525951613	0	0	44.40059129081555	-10.02886780190851	0	60.32619709311302	1.052890764481854	-4.976584525951613	0	0	0.004771645349801179	0.002172407511195255	0.001322265612770268	-0.4860162317711438	-0.1179645830670621	-0.01302107637672747	0.9911797733203281	-0.2633519826811161	0	0	0	-13.22347282616095	0	90.41993703565463	-0.2633519826811161	0	0
0.03	-0.01384803865364482	-0.003396898616990279	14.94944249124557	0	0.9399999998679526	0	44.40073878586625	-10.02884291538625	0	60.32613426360381	1.052889667900051	-4.976610871165198	0	0	44.40073878586625	-10.02884291538625	0	60.32613426360381	1.052889667900051	-4.976610871165198	0	0	0.009022227347010473	-0.003839641165179201	0.00763686127830776	-0.5182508344528235	-0.4699443494897486	0.4255965833146865	0.1957430726250158	-0.2633069582312623	0	0	0	-13.22369630392347	0	90.41986519755241	-0.2633069582312623	0	0
0.04	-1.074936104755881	-1.101796599611988	15.42472608234868	0	0.9399999998679526	0	44.40091296724258	-10.02881375746391	0	60.3260596332041	1.052888365353854	-4.97664168592078	0	0	44.40091296724258	-10.02881375746391	0	60.3260596332041	1.052888365353854	-4.97664168592078	0	0	0.9542193454208174	-0.7462141515549713	-0.3736755629247811	-0.1604291891163563	1.050020160033265	0.3245329943399461	0.19245666994063	-0.2632536644883879	0	0	0	-13.22396134035194	0	90.41978016551731	-0.2632536644883879	0	0
0.05	-2.141888905333906	-2.216387702324971	15.87499568645171	0	0.9399999998679526	0	44.40109153714039	-10.0287839974869	0	60.32598289544573	1.05288702602731	-4.976673104000205	0	0	44.40109153714039	-10.0287839974869	0	60.32598289544573	1.05288702602731	-4.976673104000205	0	0	1.721008396372494	0.9732409130148874	-1.088763055559142	0.3952174839913148	-0.1789958247194376	0.5231204170380581	0.1711724534501822	-0.2631989615260911	0	0	0	-13.22423365863243	0	90.41969288503225	-0.2631989615260911	0	0
0.06	-2.97686756182579	-4.724056821446009	16.40418917099184	0	0.9399999998679526	0	44.40530207163869	-10.02830580379408	0	60.32369703240739	1.052847130191041	-4.977134493979549	0	0	44.40530207163869	-10.02830580379408	0	60.32369703240739	1.052847130191041	-4.977134493979549	0	0	0.6300564530588375	-2.417248077816004	-0.6848350621136726	2.945985199080321	5.387958568954086	-0.7056265249259117	0.1692762260694415	-0.2617782949794552	0	0	0	-13.23186273127773	0	90.41742617958175	-0.2617782949794552	0	0
0.07000000000000001	-3.422844199571315	-5.091901290170384	17.17656772943425	0	0.9399999998679526	0	44.41056484503761	-10.02770970768218	0	60.32084044391055	1.052797273316397	-4.977709386609087	0	0	44.41056484503761	-10.02770970768218	0	60.32084044391055	1.052797273316397	-4.977709386609087	0	0	-1.817002968965738	-9.015671218620875	0.1205913511788679	6.178635722761073	12.05265388219026	-3.173965732103015	0.1738717606908836	-0.2600012239316334	0	0	0	-13.24141142422243	0	90.4145908229051	-0.2600012239316334	0	0
0.08	-5.313129088914277	-5.619310945570433	17.1056088993387	0	0.9399999998679526	0	44.41426254511715	-10.02729677984542	0	60.31883648253263	1.052762297592269	-4.978105529119719	0	0	44.41426254511715	-10.02729677984542	0	60.31883648253263	1.052762297592269	-4.978105529119719	0	0	-3.067917669575052	-13.74785972625712	0.3588318317694004	9.732676184805452	16.54290329194641	-4.836645306953635	0.1730649203708117	-0.2587501173715323	0	0	0	-13.24814241471308	0	90.41259465461425	-0.2587501173715323	0	0
